<svg width="228" height="195" viewBox="0 0 228 195" fill="none" xmlns="http://www.w3.org/2000/svg">
<path d="M1.99999 1.28829e-05C-22 -1.61036e-05 259 1.28829e-05 224.5 1.28829e-05C190 1.28829e-05 193 111.5 193 111.5C193 157.616 155.616 195 109.5 195C63.3842 195 26 157.616 26 111.5C26 111.5 26 4.18694e-05 1.99999 1.28829e-05Z" fill="#003459"/>
<path d="M135.488 99.728C135.488 103.312 134.624 106.672 132.896 109.808C131.232 112.944 128.576 115.472 124.928 117.392C121.344 119.312 116.8 120.272 111.296 120.272H100.064V146H86.6239V78.992H111.296C116.48 78.992 120.896 79.888 124.544 81.68C128.192 83.472 130.912 85.936 132.704 89.072C134.56 92.208 135.488 95.76 135.488 99.728ZM110.72 109.424C114.432 109.424 117.184 108.592 118.976 106.928C120.768 105.2 121.664 102.8 121.664 99.728C121.664 93.2 118.016 89.936 110.72 89.936H100.064V109.424H110.72Z" fill="white"/>
</svg>
